<mxfile host="app.diagrams.net" modified="2024-07-08T16:49:23.646Z" agent="Mozilla/5.0 (Windows NT 10.0; Win64; x64) AppleWebKit/537.36 (KHTML, like Gecko) Chrome/126.0.0.0 Safari/537.36" version="24.6.4" etag="l4rN5ZilctSrb402muhz" type="github">
  <diagram name="Page-1" id="b9BrN7F7T20LGmfRCk97">
    <mxGraphModel>
      <root>
        <mxCell id="0" />
        <mxCell id="1" parent="0" />
      </root>
    </mxGraphModel>
  </diagram>
</mxfile>
